<svg width="105" height="90" viewBox="0 0 105 90" fill="none" xmlns="http://www.w3.org/2000/svg">
<g clip-path="url(#clip0_1168_47)">
<path d="M43.5967 32.5055L36.8235 38.4137L33.9221 40.5554C33.9221 40.2917 34.8927 37.8756 37.1505 32.7693L39.7353 26.5973C40.7059 24.7194 41.3495 22.3034 41.3495 19.8873C41.3495 18.5475 40.7059 17.7456 39.7353 17.4713C38.1211 16.9333 36.834 17.4713 35.5363 19.0855C33.9221 20.9635 32.635 22.8414 31.6643 25.2575C28.1194 32.5055 25.5346 39.7536 24.2475 46.7274L23.9204 47.8035C23.5933 48.0672 22.6333 48.8796 21.6626 49.6814C20.3755 50.4833 19.0778 51.2956 17.7907 51.5594L18.7613 50.4833C19.0883 49.6814 19.7319 48.8691 20.692 48.0672C21.6626 46.9911 22.3062 46.453 22.6227 45.6512C22.9498 45.1131 23.5933 44.037 23.9098 42.6971C24.2369 41.0829 23.5828 40.2811 21.9792 40.2811C21.3356 40.2811 20.692 40.5449 20.365 40.8192L17.7801 42.4334C13.9082 45.6512 11.9669 47.2654 11.6504 47.2654C11.9774 46.7273 12.621 45.6512 12.9375 43.7733C13.2646 41.8953 13.5811 40.5554 13.5811 39.4793C13.2541 37.8651 12.294 37.0633 10.6798 37.0633C9.70915 37.0633 9.06556 37.3376 8.42199 37.8651C7.45136 38.4031 6.49129 39.205 5.83717 40.2811C2.93583 43.499 0.99458 46.9911 0.0239513 51.0213C-0.303108 53.163 -0.946679 56.3914 -1.26319 60.6854C-1.26319 62.0253 -1.90676 62.8271 -3.52095 63.3652C-3.84801 63.6289 -4.4916 63.629 -5.13517 63.9033C-6.1058 64.167 -6.74936 64.4413 -7.71999 64.9794C-8.04705 65.2432 -8.36356 65.5175 -8.36356 65.7812C-8.69062 66.045 -8.69062 66.3193 -8.36356 66.583C-7.71999 67.1211 -7.07642 67.1211 -6.10579 66.8468C-5.13517 66.3087 -4.81866 66.3087 -4.4916 66.3087L4.22297 63.0909C4.86654 62.8166 6.15367 62.2891 8.42199 62.0147L8.09494 62.8166L25.197 61.2024C25.8406 61.2024 26.8112 60.9281 28.0983 60.6643C29.7125 59.8625 30.3561 59.3244 30.3561 58.512V57.974C30.3561 56.6341 29.3855 56.096 27.4548 55.8217C25.8406 55.558 24.2264 55.558 22.6122 55.8217H19.3838C20.0274 55.2837 20.6709 55.0199 21.325 55.0199L37.1399 51.0002C38.1106 50.7259 42.2991 49.386 49.0829 46.97C50.6971 46.1682 51.6677 45.3558 51.6677 44.554V44.0159C51.3407 42.9398 50.0535 42.4017 48.4393 42.4017H47.4687L37.7835 44.2797L34.8822 44.5434C37.467 42.4017 39.0812 41.0513 40.0413 40.7875C42.9426 39.4476 45.5275 38.3715 47.1417 37.8334L53.9149 34.8793C56.1727 33.5394 59.7176 31.6615 64.5602 28.7074C64.5602 28.7074 65.5308 27.9056 67.4615 26.2914C67.7886 25.4896 67.7886 24.6772 67.4615 23.8754C67.1345 23.0735 66.1744 22.7992 65.2038 22.5355C63.2731 22.5355 61.9754 22.5355 61.0048 22.7992L56.4892 24.1391L58.4199 22.2612C62.619 17.9672 64.5497 15.5512 64.8767 15.2874C64.8767 15.2874 67.1345 12.3333 71.65 6.4357C72.6206 5.09581 72.9372 3.75592 72.9372 2.67979C73.2642 1.87796 72.9372 1.3399 72.6101 0.801834C71.9665 0.263768 71.323 0 70.6794 0C70.3523 0 70.0358 0.274318 69.0652 0.538076C67.451 1.3399 66.1639 2.15226 65.1932 3.49215C62.6084 6.17193 60.0341 9.66409 57.1222 14.2324C56.7952 14.4961 56.7952 14.4961 56.4787 14.7704C56.1516 15.0447 56.1516 15.5723 55.8351 16.1103L56.1622 11.8164C56.1622 9.93841 55.5186 8.86227 54.2315 8.59852C52.6173 8.33476 51.3301 9.13658 50.6865 10.4765C49.7159 11.8164 48.7558 13.6943 47.4582 16.1103C46.171 20.4043 45.5275 24.6983 45.5275 28.7285C45.2004 30.6276 44.5568 31.6931 43.5967 32.5055ZM9.06558 41.8953C8.09495 45.3875 5.83717 49.6814 2.93583 54.2392C3.26289 51.8231 3.90646 49.4071 5.1936 46.9911C6.48074 44.3113 7.77844 42.6971 9.39264 41.621L9.06558 41.8953ZM32.6244 29.8152C34.2386 25.5212 35.8528 23.1052 37.467 21.7653V22.0291C35.8528 26.5868 33.268 32.2312 29.7231 39.205C30.0396 37.0633 31.0102 33.8454 32.6244 29.8152ZM43.5967 44.8494L43.9238 45.3875L30.3666 49.4177C33.9115 47.5292 38.1106 46.1893 43.5967 44.8494ZM68.7592 4.32564C67.145 7.81779 63.9166 11.5737 59.7282 16.1314C61.9859 11.5632 65.2143 7.54348 68.7592 4.32564ZM63.6001 24.7194C60.6988 27.6735 55.5291 30.6276 48.1123 33.5711C52.9443 28.7496 58.114 25.7955 63.6001 24.7194Z" fill="white" fill-opacity="0.33"/>
<path d="M53.2714 74.1054C50.6865 76.5214 47.4687 77.8613 43.2697 77.8613H31.6537C32.2973 77.5976 33.268 77.0595 34.2386 76.7852C35.2092 76.2471 36.1693 76.2471 36.4964 75.9834C40.0413 75.1816 43.9132 74.1054 48.1122 72.2275L52.3113 69.8114C52.6383 69.5371 52.9548 68.7353 52.9548 67.6592C52.6278 66.8574 51.9842 66.3193 50.6971 66.3193C48.7664 66.3193 47.4687 66.3193 46.498 66.5936L32.9409 69.2734L30.6831 69.8114C30.6831 67.6592 30.0396 66.5936 28.4254 66.5936L27.1382 66.8574C24.8804 67.6592 23.2663 68.1973 22.9392 68.4716C22.2956 68.7353 20.9979 69.0096 19.3943 69.8114C17.7801 70.6133 16.1659 71.6894 14.8788 72.7655C13.2646 74.1054 11.3339 74.6435 9.39261 74.6435C8.42198 74.6435 7.46189 74.3797 6.1642 74.1054C5.19357 73.8311 3.57937 73.3036 1.0051 73.0293C0.0344675 73.0293 -0.6091 73.5674 -0.6091 74.3692C-0.282041 74.9073 0.0344675 75.171 1.0051 75.4453C1.97573 75.7091 2.29223 75.9834 2.61929 75.9834C3.90643 76.2471 5.52063 76.7852 7.13483 77.0595C8.74902 77.5976 11.0068 78.1356 13.2646 78.3994C15.8494 78.6632 18.7507 79.4755 21.6521 81.0792C30.3666 85.0989 35.2092 87.2511 36.8129 88.0529C37.4564 88.3167 38.4271 88.591 39.7142 88.8548C41.0013 89.1185 41.972 89.3928 42.6155 89.6566C43.5862 89.9204 44.5462 89.6566 45.5169 88.8548C46.1604 88.0529 46.1604 87.2406 45.1898 86.175C43.9027 84.8351 42.2885 83.4847 40.6743 82.4191L36.8023 80.5411L42.605 81.0792C44.2192 81.6173 46.1499 82.1553 48.4077 82.9571C50.6654 83.759 52.9232 84.297 55.8245 85.0989C61.6272 86.713 66.4698 87.5149 70.6688 87.5149H73.8972C75.5114 87.2511 76.155 86.713 76.155 85.9007C75.8279 84.8245 75.1844 84.0227 74.8679 83.759C74.2243 83.2209 73.2537 82.6828 71.9665 82.4191L62.6084 80.003C61.9648 80.003 61.3212 79.7393 60.3506 79.465L65.8368 78.6632C73.9078 77.8613 80.0375 77.3233 84.8695 76.7852C90.9993 76.2471 95.8419 74.9072 99.7138 73.0293C101.328 72.4912 102.615 71.6894 104.229 70.3495C104.873 69.8115 105.2 69.2734 105.2 68.4716C105.2 67.1317 104.229 66.3193 102.299 66.0555L101.972 66.5936C101.328 66.3193 100.357 66.3193 99.3868 66.3193C98.0996 66.3193 97.129 66.3193 96.4854 66.5936C91.3263 67.9335 87.7709 68.7353 85.5131 69.5477C82.6118 70.3495 77.4421 72.5018 69.3817 75.4559C68.0945 75.9939 66.1533 76.2577 63.8955 76.2577H63.5684C64.5391 75.9939 65.1827 75.4559 65.4992 75.1816C70.3418 72.5018 73.8867 70.6238 75.5008 69.5477C76.4715 69.2839 77.4316 68.2078 78.4022 66.5936C78.7292 65.7918 78.7292 64.9794 78.4022 64.1776C77.7586 63.3758 76.788 63.1014 75.8174 63.1014L73.2747 63.3652C69.7298 64.167 66.5015 65.5175 63.5896 67.3954C58.7575 70.339 55.5291 72.4912 53.2714 74.1054ZM46.8146 69.2734C40.6848 71.9532 32.9409 73.8311 23.5828 75.1816C31.6538 71.9532 39.3977 70.0752 46.8146 69.2734ZM40.6848 86.175C36.8128 85.0989 32.2973 83.2209 26.8112 80.2668C31.9808 80.8154 36.4963 82.6934 40.6848 86.175ZM90.0603 70.339C93.6052 69.2628 97.1607 68.7248 100.706 68.7248C97.8042 70.339 94.5758 71.4046 91.0204 72.2169C87.697 72.966 83.7934 73.7151 79.3412 74.2531C83.1815 72.5862 86.7686 71.3412 90.0603 70.339ZM74.2454 66.045C70.3734 69.2628 64.2437 72.4912 56.1727 75.4348C62.6295 70.339 68.7592 67.3954 74.2454 66.045Z" fill="white" fill-opacity="0.33"/>
</g>
<defs>
<clipPath id="clip0_1168_47">
<rect width="105" height="90" fill="white"/>
</clipPath>
</defs>
</svg>
