<svg width="178" height="62" viewBox="0 0 178 62" fill="none" xmlns="http://www.w3.org/2000/svg">
<g clip-path="url(#clip0_1170_79)">
<path d="M6.35257 5.90238C6.46651 6.02894 6.59892 6.16811 6.73988 6.31854C6.52011 6.00597 6.31609 5.72584 6.15487 5.50199C6.20666 5.64026 6.26971 5.76997 6.35257 5.90238Z" fill="white" fill-opacity="0.33"/>
<path d="M5.56759 4.77597C5.6374 4.85613 5.827 5.09393 6.1337 5.50919C5.78423 4.8156 5.60319 4.14497 5.44333 3.46715C6.4576 2.83846 7.35925 2.96144 8.1681 3.8388L8.47527 3.8807C10.4929 4.92294 12.7826 6.26469 14.7313 7.81225C15.5402 8.68961 18.5599 11.4127 23.1959 15.9004L31.0561 23.9061L31.796 25.2888L30.349 24.5767C21.3681 20.2735 14.0762 14.9088 8.49584 8.24351C7.86354 7.55171 7.23122 6.85991 6.72997 6.31719C7.12808 6.87612 7.60772 7.57737 8.16346 8.46058C14.6117 15.4966 21.8698 21.109 30.28 25.082L41.7451 31.5205C42.0522 31.5624 42.3495 31.603 42.3143 31.8606L41.9383 32.324C41.6649 32.0344 40.7633 31.9114 39.8517 31.7871C33.6284 29.9088 28.8761 28.4936 25.5821 27.7819C23.4955 27.245 20.1564 26.7895 15.9157 26.2111C14.3997 26.0043 13.4192 26.3853 12.9503 27.6031C12.5405 28.3143 12.7098 29.3668 14.1217 30.3365C15.5349 31.2963 17.2792 32.0489 19.6378 32.8854C25.2229 34.9289 30.8769 36.4671 36.3363 37.2118C39.0611 37.5835 43.3356 37.9142 48.592 37.854C51.3505 37.9779 53.8132 38.0514 55.3291 38.2582C57.4495 38.5474 59.5347 39.0942 61.2551 40.0959L64.2181 41.0148C62.9755 41.0976 61.3907 41.3962 59.5324 41.4051C57.6403 41.6618 56.1343 41.4564 55.189 41.5797L39.3537 42.2458C38.4083 42.3691 37.1644 42.4619 35.5457 43.0081C34.2342 43.5963 33.823 44.3173 34.3247 45.1528C34.5291 45.9477 35.0646 46.5355 35.9762 46.6598C36.8539 47.0318 38.0276 47.4543 39.8408 47.7017C45.9047 48.5287 51.7303 48.8086 57.3514 48.2936L59.2083 48.2945C57.1785 49.5618 56.1741 50.1919 56.1741 50.1919C55.467 50.8625 55.0909 51.3259 55.3291 51.8731C55.5674 52.4203 56.4352 52.791 57.3116 53.173L59.4658 53.2145C64.1515 52.8241 67.9933 51.8141 71.5982 50.2469L79.1826 46.659C80.4942 46.0708 81.4409 45.9375 82.3524 46.0619L82.9568 46.1443L92.3147 47.6831C92.3147 47.6831 92.8853 48.0133 94.0689 48.4371C90.2947 48.9518 86.8277 49.5083 83.9214 50.3936C83.5791 50.6094 81.9956 50.898 79.405 51.8365C78.4245 52.2175 78.0245 52.93 78.1839 53.9812C78.3532 55.0337 78.8887 55.6215 80.4047 55.8282C80.9753 56.1584 81.8868 56.2827 83.0956 56.4476C84.3045 56.6125 85.216 56.7368 85.8542 56.5715C92.9913 56.2633 100.345 54.4404 107.666 50.5642C108.68 49.9355 109.32 49.7604 109.617 49.8009L120.391 49.9886L114.119 52.9785C112.808 53.5666 111.792 54.2052 110.743 55.0915C109.728 55.7202 109.659 56.2255 109.864 57.0205C110.102 57.5677 110.97 57.9384 112.189 58.1046L115.016 57.7232C120.775 56.1975 126.647 53.9202 132.384 50.3327C133.399 49.704 134.379 49.323 135.019 49.1478L155.166 46.244L145.518 51.3469L137.726 56.4508C136.746 56.8317 136.039 57.5023 135.594 58.4711C135.184 59.1822 135.115 59.6875 135.353 60.2347C135.591 60.782 136.162 61.1121 137.074 61.2364L137.678 61.3189C138.59 61.4432 139.536 61.3099 140.506 60.9375C149.137 58.7742 156.493 54.6404 162.87 48.5866L165.847 44.8851C166.931 43.7511 168.951 42.4824 172.53 41.1742C174.149 40.6279 176.407 39.9065 179.373 38.5145L182.407 36.6172C182.748 36.4113 183.114 35.9466 183.456 35.7308C183.832 35.2674 183.594 34.7202 183.321 34.4306C183.047 34.141 182.443 34.0586 181.805 34.2238C181.131 34.6467 180.824 34.6048 180.493 34.812C176.24 36.5431 172.942 38.1522 170.641 39.12C169.66 39.5009 168.451 39.3361 167.278 38.9136C165.191 38.3767 161.659 37.1177 156.039 35.3318C150.077 33.7517 146.51 32.7504 145.301 32.5855C143.785 32.3787 143.112 32.8016 142.974 33.8123C142.871 34.5653 143.407 35.153 144.819 36.1228C148.248 38.1347 151.748 39.6314 155.316 40.6327L160.092 41.7989C159.452 41.9741 158.473 42.3452 157.493 42.7262C156.512 43.1071 155.577 43.2319 154.63 43.3651C153.114 43.1584 152.202 43.034 151.335 42.6634C149.01 41.5792 146.958 40.7847 145.18 40.2798C143.401 39.7847 141.92 39.3203 140.735 38.9064L126.806 34.6954C125.598 34.5305 124.686 34.4062 124.048 34.5714C123.101 34.7047 122.77 34.9119 122.36 35.623C121.95 36.3341 122.189 36.8813 122.724 37.4691C122.929 38.264 123.761 38.8923 125.208 39.6044C126.85 41.1101 129.173 42.2041 132.138 43.1131C133.014 43.495 134.462 44.1972 136.845 44.7846C137.449 44.867 138.361 44.9914 139.239 45.3634C140.414 45.776 141.028 45.8598 140.993 46.1174L131.623 46.8881C130.677 47.0115 129.502 46.5989 128.02 46.1444C123.144 43.4204 119.108 41.3359 116.488 40.2013L100.236 32.5953C99.6658 32.2651 98.7543 32.1408 97.8778 31.7589C97.0001 31.3868 96.0885 31.2625 95.4841 31.18C93.3637 30.8908 92.3495 31.5195 92.1427 33.0355C92.04 33.7885 92.2782 34.3357 92.8137 34.9235C94.6935 36.9764 95.5024 37.8537 95.5024 37.8537C100.242 41.5785 104.812 44.2607 109.826 45.9741C110.704 46.3461 110.966 46.6443 111.273 46.6861C110.029 46.7789 109.084 46.9023 108.173 46.7779C107.261 46.6536 106.657 46.5712 106.018 46.7364C102.953 46.5706 99.7262 45.3635 96.5587 43.6497L71.339 29.4309C69.3213 28.3886 67.8405 27.9242 66.6655 27.5117C66.3921 27.2221 65.7877 27.1396 65.1495 27.3049C64.51 27.4801 64.169 27.6859 63.838 27.893C63.4281 28.6042 63.3241 29.3671 63.8695 29.9562C64.6094 31.3389 65.6803 32.5144 67.0585 33.7318C70.0781 36.4549 74.0544 39.0461 78.9662 41.5125C80.1398 41.935 80.9838 42.5547 81.5531 42.8948C80.9487 42.8124 80.6415 42.7705 80.6415 42.7705C76.7332 41.975 70.782 40.3962 62.7356 38.2692L59.8753 36.5973L52.7551 29.9743L46.0676 24.6921C45.7942 24.4025 44.6205 23.98 43.1735 23.2679C42.2957 22.8958 41.6575 23.0611 41.3265 23.2683C40.9842 23.484 40.6194 23.9389 40.5505 24.4442L40.7549 25.2391C40.9594 26.034 41.1877 26.5799 41.4259 27.1271C41.6641 27.6743 41.8925 28.2202 42.1658 28.5098C42.1658 28.5098 42.9747 29.3872 44.319 30.8523C42.8368 30.3978 41.0925 29.6452 39.7144 28.4277L29.5079 17.2761L18.8901 6.84544C17.512 5.62802 14.9589 3.99801 11.4942 2.24368C10.6516 1.61402 8.87213 1.119 6.75177 0.829791C4.93855 0.582474 3.88915 1.46878 3.64859 3.23245C3.78411 4.5327 4.25066 5.62578 4.47899 6.17165L5.56759 4.77597ZM34.9244 36.2421C30.9809 35.7042 27.0811 34.92 23.2417 33.6192C19.4009 32.3282 16.483 31.1531 15.1035 29.9456C19.0132 30.7312 24.9982 32.0623 33.0446 34.1892C36.2711 35.3963 39.2679 36.0675 41.3544 36.6044C38.9017 36.5323 36.7475 36.4908 34.9244 36.2421ZM156.828 50.0434C155.709 51.435 153.622 53.1991 149.973 55.0127C146.334 56.8276 143.393 57.9705 140.873 58.3938C143.234 56.9193 146.234 55.2697 149.54 53.6719C153.179 51.857 155.505 50.6401 156.828 50.0434ZM140.474 43.1904C138.353 42.9012 136.267 42.3643 133.646 41.2297C131.024 40.105 129.305 39.0934 127.892 38.1336L128.199 38.1755L143.244 43.3058C142.594 43.4796 141.683 43.3553 140.474 43.1904ZM104.872 41.675C100.531 39.5388 97.4759 37.0733 95.0606 34.4326L95.3678 34.4745C96.3131 34.3512 96.8838 34.6813 97.7615 35.0534L110.582 40.6574L120.405 45.5902L121.282 45.9722C120.336 46.0956 119.128 45.9307 117.612 45.7239C113.351 45.1428 109.213 43.8113 104.872 41.675ZM100.43 51.5958C94.8308 54.1727 89.1407 55.1931 82.7007 54.8294C83.715 54.2007 85.9394 53.727 90.0446 53.0051C94.1697 52.286 97.6367 51.7295 100.43 51.5958ZM68.216 32.0529C69.0938 32.4249 71.9878 33.8491 76.8644 36.5731C81.7424 39.2873 85.1719 41.2992 87.4278 42.8887C80.0534 40.3488 73.7636 36.6649 68.216 32.0529ZM52.9175 46.9117C47.3301 47.179 43.0106 47.1046 39.7165 46.3929C40.7308 45.7642 44.164 45.4553 50.0235 45.4875C55.918 45.262 61.173 45.2118 65.4475 45.5425C62.5849 46.1815 58.5148 46.6457 52.9175 46.9117ZM45.0537 27.6118L51.9807 33.4314C50.8057 33.0188 49.3587 32.3067 47.9468 31.337C46.2615 30.0777 45.4964 28.954 44.7578 27.5614L45.0537 27.6118Z" fill="white" fill-opacity="0.33"/>
<path d="M81.0316 28.6637C81.636 28.7462 82.2742 28.5809 82.6165 28.3652C82.9925 27.9018 83.3587 27.437 83.4614 26.684C83.5303 26.1786 83.2921 25.6314 83.0287 25.3432C82.7904 24.796 82.2198 24.4658 81.9226 24.4253C80.4066 24.2185 79.6995 24.8891 79.5265 26.1573C79.345 27.4143 79.8466 28.2498 81.0316 28.6637Z" fill="white" fill-opacity="0.33"/>
</g>
<defs>
<clipPath id="clip0_1170_79">
<rect width="178" height="62" fill="white"/>
</clipPath>
</defs>
</svg>
