<svg width="144" height="42" viewBox="0 0 144 42" fill="none" xmlns="http://www.w3.org/2000/svg">
<path d="M46.315 39.7324C46.315 38.0624 45.555 37.0624 44.425 37.0624C44.045 37.0624 43.295 37.3924 42.915 37.7324C42.535 38.0624 42.165 38.7324 42.165 39.4024C42.165 40.0724 42.545 40.7324 42.915 41.0724C43.295 41.4024 44.045 41.7424 44.425 41.7424C45.555 41.7424 46.315 41.0724 46.315 39.7324Z" fill="white" fill-opacity="0.33"/>
<path d="M92.725 13.3924L98.005 17.7324L99.135 18.7324C98.005 18.7324 96.875 18.4024 95.365 18.0624C94.235 17.7324 91.215 16.7324 86.685 15.7324C84.045 14.7324 80.275 13.7324 75.365 12.3924C72.725 12.0624 70.835 11.7224 69.325 11.7224C67.435 12.0524 66.685 12.7224 66.685 14.0524C66.685 14.7224 66.685 15.3924 67.065 15.7224L68.195 17.7224L54.235 13.3824L48.955 12.0424C47.065 12.0424 46.315 12.3724 45.935 13.0424C45.555 14.0424 45.935 15.0424 47.065 15.7124L51.215 18.0424C47.815 18.0424 44.045 17.0424 40.655 15.3724L28.955 9.37236L11.225 2.03237C10.475 1.70237 8.965 1.03236 6.325 0.702364C3.685 0.702364 2.175 1.70236 2.175 3.70236L2.555 5.03237C2.935 6.03237 4.065 7.36237 5.575 9.03237C8.215 11.7024 11.995 14.0324 17.275 16.0324C24.445 18.3624 32.365 20.0324 40.675 20.3724C42.565 20.7024 44.445 21.0424 46.335 21.7024C48.215 22.3724 50.105 22.7024 51.235 23.0424L47.835 23.7124L31.985 25.7124C30.475 26.0424 28.965 26.7124 27.455 27.7124C26.325 28.3824 25.945 29.0424 25.945 30.0424C25.945 31.0424 26.705 31.7124 27.835 32.3724C29.345 33.0424 31.235 33.3724 33.115 33.3724C39.155 33.7024 45.565 33.0424 52.355 31.7024C57.635 30.7024 63.675 29.0324 70.085 26.3624C71.595 26.0324 72.725 25.6924 73.855 25.6924C82.535 26.0224 88.945 26.3624 93.095 26.3624C93.475 26.3624 93.845 26.3624 94.225 26.6924C91.585 27.6924 89.695 28.0224 88.565 28.3624C87.815 28.6924 85.925 29.0324 82.525 29.6924C79.125 30.6924 76.105 31.6924 73.465 33.3624C71.955 34.0324 70.445 35.0324 69.315 36.7024C68.565 37.7024 68.565 38.3724 68.935 39.3724C69.315 40.3724 70.445 41.0424 71.575 41.3724C71.955 41.7024 73.085 41.7024 74.215 41.7024L82.895 40.0324C91.575 37.3624 99.125 33.3624 105.535 27.6924C106.665 26.6924 107.425 26.3624 108.555 26.3624L119.495 25.6924C118.365 26.6924 117.605 27.0324 116.855 27.3624L108.175 32.3624C106.665 33.3624 105.535 34.3624 104.405 35.7024C104.025 36.7024 104.025 37.3724 104.785 38.3724C105.535 39.3724 106.675 39.7024 107.805 39.7024L110.825 38.7024C116.105 37.0324 121.765 33.3624 127.425 27.6924C130.445 25.0224 133.465 23.6924 136.105 23.3524C138.745 23.0224 140.255 22.3524 141.385 22.0224C142.895 21.3524 143.645 20.6924 143.645 20.3524C144.025 19.6824 143.265 19.3524 142.135 19.0224H141.385C141.005 18.6924 139.875 19.0224 138.745 19.3524C136.105 20.0224 133.465 19.3524 130.445 17.6824L122.145 12.6824L104.785 2.34236C104.025 2.01236 102.895 1.34238 101.385 1.01238C100.255 0.342377 99.125 0.342364 98.365 1.34236C97.615 2.34236 97.615 3.01238 97.985 4.01238C98.365 4.34238 99.115 5.01238 99.495 5.68238C100.245 6.35238 100.625 7.01238 101.385 7.68238C107.045 13.3524 113.455 17.3524 121.385 20.0224L124.405 21.3524C121.005 21.6824 118.365 22.0224 117.235 22.0224C116.105 22.3524 114.595 21.6924 112.705 20.6924L102.895 13.6924C102.895 13.6924 99.875 11.6924 93.835 7.69237C91.945 6.69237 90.435 6.69237 89.685 7.69237C89.305 8.69237 89.305 9.69236 90.435 11.0224L92.725 13.3924ZM18.015 12.0524C14.015 10.4524 10.725 8.21237 7.795 5.07237C9.805 5.20237 13.825 6.52237 19.905 9.05237C26.315 12.0524 31.225 14.3924 33.865 16.3924C27.065 15.0524 21.785 13.7224 18.015 12.0524ZM34.365 29.4024C35.975 28.5724 39.915 27.9524 45.935 27.0624C52.725 26.0624 57.635 25.7224 60.655 26.0624C50.525 28.7124 41.515 29.7124 34.365 29.4024ZM105.935 7.05237H105.555C105.935 6.72237 106.685 7.05237 108.195 7.72237C109.705 8.72237 110.835 9.39237 111.965 9.72237C116.875 12.7224 120.645 15.0624 123.285 16.3924C117.255 15.0524 111.595 12.0524 105.935 7.05237ZM87.065 34.7324C81.585 36.6724 77.515 37.6624 74.185 37.4124C75.775 35.8524 78.705 34.2924 83.295 32.7324C88.195 30.7324 92.725 29.7324 97.635 29.0624C95.745 31.0724 92.345 33.0724 87.065 34.7324ZM74.235 14.7224C78.385 15.3924 84.045 16.7224 91.595 19.0624C93.485 19.7324 96.125 20.3924 99.515 21.3924C89.705 21.0724 81.405 18.7224 74.235 14.7224Z" fill="white" fill-opacity="0.33"/>
<path d="M65.175 5.05237C65.175 4.38237 64.795 3.72237 64.425 3.38237C64.045 3.05237 63.295 2.71237 62.915 2.71237C61.785 2.71237 61.025 3.38237 61.025 4.71237C61.405 6.38237 62.155 7.04237 63.285 7.04237C64.425 7.05237 65.175 6.38237 65.175 5.05237Z" fill="white" fill-opacity="0.33"/>
<path d="M2.165 13.3924H1.415C1.035 13.3924 0.665 13.7224 0.285 14.0624C-0.095 14.3924 -0.095 15.0624 0.285 15.7324C0.665 17.0624 1.415 17.7324 2.545 17.7324H2.925C4.435 17.4024 4.815 16.4024 4.435 15.4024C4.435 15.0724 4.055 14.4024 3.675 14.0624C3.295 13.7224 2.545 13.3924 2.165 13.3924Z" fill="white" fill-opacity="0.33"/>
</svg>
