<svg width="239" height="300" viewBox="0 0 239 300" fill="none" xmlns="http://www.w3.org/2000/svg">
<g clip-path="url(#clip0_1171_87)">
<path d="M119.51 201.9C120.33 202.4 121.14 203.41 121.14 204.42L122.77 257.89C123.58 280.59 125.22 297.74 126.03 308.33C126.03 311.86 127.66 315.9 130.1 319.93C131.73 322.96 134.18 324.47 137.44 324.47H139.07C143.14 324.47 145.59 322.45 145.59 318.42V316.91V299.76C144.78 282.1 143.96 255.37 141.52 218.55L142.33 215.02C143.96 216.03 144.77 217.04 145.59 217.54C146.41 218.55 146.41 219.56 147.22 220.06C161.89 238.73 180.63 253.86 203.45 265.46C209.97 267.98 214.86 270 218.93 271.01C222.19 272.52 224.64 272.52 227.08 271.01C228.71 269.5 228.71 267.98 226.26 265.46L221.37 261.43L204.26 247.31C190.41 235.71 179.81 224.61 172.48 214.02L170.03 209.99C170.03 209.99 173.29 212.51 179.81 217.56C187.15 223.11 192.85 226.13 196.11 227.14C197.74 228.15 200.18 228.65 202.63 228.65L206.71 227.64C209.15 226.63 209.97 225.12 209.97 223.6C209.97 222.59 209.97 222.09 209.16 221.58C206.72 216.54 204.27 213.51 203.46 212L174.93 178.71L169.23 171.65C170.04 172.16 171.67 172.66 174.12 174.17C176.57 175.68 178.2 176.69 179.01 177.7L204.27 192.83C205.9 193.84 208.35 194.34 210.79 194.34C212.42 194.34 213.23 194.34 214.05 193.84C217.31 192.33 217.31 189.81 214.05 187.28C210.79 183.24 206.72 178.71 202.64 174.17L171.67 138.36C170.86 137.35 169.23 135.84 168.41 133.82L171.67 135.33L195.31 151.98L201.83 155.01C204.28 156.02 206.72 156.02 208.35 155.01C210.8 154 210.8 152.99 209.98 151.48L206.72 146.94C205.09 144.92 202.64 142.9 200.2 140.38C197.75 137.86 194.5 135.34 192.05 132.31L166.79 104.06L165.16 101.03C166.79 102.04 168.42 103.05 169.23 103.55C170.04 104.56 171.67 105.57 172.49 106.07C185.53 117.67 201.01 126.75 219.76 133.31C225.46 135.33 229.54 136.34 231.98 136.34C236.06 136.34 238.5 134.83 238.5 131.3C237.68 128.78 236.05 126.76 235.24 125.25C227.09 117.18 222.2 112.13 219.75 110.12C203.45 96 191.22 85.4 182.26 78.85C168.41 67.75 158.63 56.65 151.29 45.05C142.33 30.93 137.44 20.33 134.99 12.77C134.18 10.25 132.55 7.22002 131.73 3.19002C130.92 0.670017 128.47 -0.339984 126.03 -0.339984C123.58 -0.849984 121.14 0.160017 120.33 2.69002C117.88 5.71002 117.07 8.74002 116.26 11.26C115.45 13.78 115.45 16.3 114.63 18.83C113.82 21.35 113.82 23.87 113 26.39C108.11 38.5 101.59 47.58 94.26 53.63C84.48 62.2 77.15 68.76 71.44 72.8C71.44 72.8 66.55 75.83 57.59 81.37C57.59 81.37 52.7 84.4 43.74 89.95L25.81 101.55C21.74 104.58 20.11 107.6 20.11 110.63C20.11 114.16 23.37 116.18 29.89 116.18C35.59 116.18 41.3 115.17 47 112.65C55.96 109.12 63.3 104.58 70.63 98.53L75.52 95C75.52 96.01 75.52 97.02 74.71 97.52C73.9 98.03 73.9 99.03 73.08 99.54C57.59 117.7 40.48 133.84 20.92 147.46L8.69001 157.04C5.43001 159.56 3.80001 162.08 3.80001 164.1C3.80001 166.62 6.24001 167.63 10.32 167.63H11.95C17.65 167.12 20.91 166.12 23.36 165.11C30.7 163.09 39.66 158.55 50.26 152C59.22 145.44 68.19 137.37 76.34 127.79C83.67 120.22 89.38 112.15 95.08 103.58C100.78 95.01 106.49 84.91 113.82 72.31C114.63 69.79 116.27 67.77 117.08 66.26C117.89 67.77 117.89 68.78 117.89 69.29C117.08 70.3 117.08 70.8 117.08 71.31C110.56 97.54 97.52 121.75 77.15 143.44C73.08 147.98 69 151.51 65.74 155.04C62.48 158.57 59.22 161.09 56.78 163.61C52.71 167.14 47.82 172.19 41.29 178.74C38.85 181.26 35.59 183.78 33.14 186.3C29.88 188.82 26.62 191.85 24.18 194.37C20.92 197.9 19.29 200.42 18.47 202.44C17.66 204.96 17.66 206.48 19.28 207.99C20.91 209.5 23.35 210.51 26.62 210.51L30.69 210.01C33.14 210.01 36.39 209.51 39.65 207.99C42.91 206.47 47.8 204.46 54.32 200.93C62.47 195.89 68.99 190.34 73.88 184.28C75.51 182.26 77.95 178.73 82.03 173.18C86.11 167.63 88.55 163.09 90.99 158.55C94.25 153 96.69 147.45 99.14 142.91C101.58 138.37 103.21 133.83 105.66 130.3L114.62 112.14L117.07 108.61C117.88 115.17 116.26 123.24 113.81 132.82C100.77 172.17 70.62 206.47 23.35 235.22L7.05001 244.8C4.60001 246.31 2.97001 247.82 1.34001 249.84C-1.09999 251.86 -1.09999 253.37 1.34001 254.88C2.97001 256.39 4.60001 256.9 7.05001 256.9H9.49001C13.56 256.9 16.01 256.4 18.45 255.39C27.41 252.87 34.75 249.34 40.45 245.81C47.79 241.27 57.56 233.71 68.16 223.11C84.46 205.45 98.31 187.3 108.91 168.13C110.54 165.1 111.36 163.09 112.17 162.58L112.98 164.09L110.53 168.63C99.94 189.82 85.27 210.5 64.89 231.18L45.33 251.36C43.7 252.87 42.07 254.89 39.63 258.42C38 263.46 40.44 265.99 46.97 265.99C48.6 265.99 50.23 265.99 51.05 265.48C55.94 264.47 60.83 262.96 65.72 260.94C78.76 255.39 89.36 247.32 98.32 237.23C106.47 228.66 112.99 218.56 117.06 206.96L119.51 201.9ZM205.9 256.89L201.01 254.87C172.49 237.21 153.74 217.54 143.96 196.86C141.52 193.33 140.7 188.79 140.7 184.25C139.89 181.22 139.89 178.7 140.7 176.18C141.19 174.68 141.37 173.55 141.45 172.55C151.72 192.01 160.4 206.67 165.97 216.03C173.3 226.62 186.34 240.24 205.9 256.89ZM186.84 203.74L194.99 214.33C200.69 221.39 203.14 225.93 203.14 227.95L197.44 223.91C191.73 219.88 188.48 216.85 186.03 214.83C165.65 194.15 151.8 172.96 144.47 151.27C143.66 149.76 143.66 147.24 143.66 143.7H145.29L147.73 147.23C153.43 158.34 166.47 177 186.84 203.74ZM185.52 130.78C178.18 127.25 170.85 119.68 162.7 108.08C154.13 96.51 149.32 87.26 146.77 78.97C158.09 99.86 171.01 117.3 185.52 130.78ZM147.22 56.12C152.11 62.68 158.63 69.23 166.78 75.79C174.93 82.85 183.08 89.41 191.23 95.97L218.12 118.67C221.38 121.19 223.82 123.72 225.45 126.24L220.56 124.73C202.63 118.17 187.15 109.09 174.11 96.48C162.7 85.38 153.73 71.76 146.4 56.13L145.58 53.61L147.22 56.12ZM139.07 97.49V97.99C155.37 128.76 176.56 156.5 202.64 181.22C196.93 179.71 189.6 175.17 180.64 166.59C170.86 158.02 162.71 150.45 157 142.88C144.77 125.23 138.25 110.1 139.07 97.49ZM62.46 93.95C51.05 101.52 40.46 106.06 31.49 107.06C32.3 106.56 32.3 105.55 33.12 104.54C33.93 103.53 34.75 102.52 35.56 102.02L50.23 92.94C60.82 85.88 72.23 78.82 83.64 72.26C83.64 71.75 84.45 71.25 86.09 70.75V71.25C82.02 78.82 73.87 86.39 62.46 93.95ZM64.91 125.73C48.61 140.86 34.76 150.45 23.35 153.98C50.25 134.31 73.07 113.12 91.81 89.92C89.36 98.5 80.39 110.6 64.91 125.73ZM64.09 180.72C56.75 188.29 46.98 194.84 33.12 199.89L33.93 197.37L48.6 184.26C55.94 176.69 66.53 166.1 82.01 151.98L84.45 150.47C77.13 163.06 70.61 173.15 64.09 180.72ZM39.64 236.71C32.64 240.25 27.67 242.55 25.42 243.63C28.47 241.08 34.36 237.31 42.09 231.66C46.17 229.14 50.24 226.62 53.5 225.1C56.76 223.08 58.39 222.58 59.21 222.08C55.13 227.63 48.61 232.67 39.64 236.71ZM102.4 216.03C98.32 225.61 91.8 233.69 82.84 240.24C75.5 247.8 65.73 253.35 54.32 257.39L50.25 258.9C51.06 257.39 51.88 255.87 52.69 255.37L72.25 234.69C92.62 214.51 108.11 194.34 117.07 174.16C117.88 173.66 117.88 172.14 118.7 170.63C119.51 168.61 119.51 167.6 120.33 167.1V167.61C120.33 173.16 120.33 176.18 119.51 177.7C117.88 180.73 116.25 185.27 113.81 191.32L102.4 216.03Z" fill="white" fill-opacity="0.33"/>
</g>
<defs>
<clipPath id="clip0_1171_87">
<rect width="239" height="300" fill="white"/>
</clipPath>
</defs>
</svg>
